<svg id="Layer_1" data-name="Layer 1" xmlns="http://www.w3.org/2000/svg" viewBox="0 0 1080 313.14"><defs><style>.cls-1{fill:#fff;}</style></defs><path class="cls-1" d="M194.17,82.51H74.54a40,40,0,0,0-40,40H154.21a40,40,0,0,0,40-40Z"/><path class="cls-1" d="M98.84,192.38H74.54a40,40,0,0,0-40,40H58.89a40,40,0,0,0,40-40Z"/><path class="cls-1" d="M144.48,137.45H74.54a40,40,0,0,0-40,40h69.94a40,40,0,0,0,40-40Z"/><path class="cls-1" d="M288.14,120.59v25.1h61.09v37.24H288.14V229.8H238.77V83.35h119v37.24Z"/><path class="cls-1" d="M406.76,223.31A73.83,73.83,0,0,1,377.27,196q-10.68-17.47-10.67-39.44t10.67-39.44a73.9,73.9,0,0,1,29.49-27.3Q425.6,80,449.23,80t42.47,9.83a73.86,73.86,0,0,1,29.5,27.3q10.68,17.48,10.67,39.44T521.2,196a73.79,73.79,0,0,1-29.5,27.3q-18.82,9.83-42.47,9.83T406.76,223.31Zm59.11-34.63a32.09,32.09,0,0,0,11.82-12.76,40.57,40.57,0,0,0,4.39-19.35,40.63,40.63,0,0,0-4.39-19.35,32.22,32.22,0,0,0-11.82-12.76,33,33,0,0,0-33.27,0,32.22,32.22,0,0,0-11.82,12.76,40.63,40.63,0,0,0-4.39,19.35,40.57,40.57,0,0,0,4.39,19.35,32.09,32.09,0,0,0,11.82,12.76,33,33,0,0,0,33.27,0Z"/><path class="cls-1" d="M612.63,193H599.24V229.8H549.86V83.35h70.51q20.28,0,35.35,6.69T679,109.29q8.16,12.55,8.16,29.29,0,15.69-7.12,27.41a50.3,50.3,0,0,1-20.5,18.62l30.75,45.19H637.52Zm19.66-67q-5-4.5-15.06-4.5h-18v34.31h18q10,0,15.06-4.49t5-12.66Q637.31,130.42,632.29,125.92Z"/><path class="cls-1" d="M772.9,120.59v25.1H834v37.24H772.9V229.8H723.52V83.35H835.59l26.27,37.24Z"/><path class="cls-1" d="M923.53,190.67,898.84,229.8H842.57l52.93-73.86-51-72.59h55.44l24.9,36.82,24.27-36.82h45.52Zm26.3-29.4,51.89,68.53H945.24l-20.47-31.33"/></svg>